<svg width="24" height="24" xmlns="http://www.w3.org/2000/svg">
 <title/>

 <g>
  <title>background</title>
  <rect fill="none" id="canvas_background" height="402" width="582" y="-1" x="-1"/>
 </g>
 <g>
  <title>Layer 1</title>
  <path fill="#7f007f" id="svg_1" d="m16.633,16.504c0.869,-0.075 1.543,-0.84 1.499,-1.754c-0.046,-0.914 -0.795,-1.648 -1.708,-1.648l-0.061,0c-0.943,0.031 -1.678,0.824 -1.648,1.769c0.03,0.479 0.226,0.869 0.494,1.153c-1.048,2.038 -2.621,3.536 -5.004,4.795c-1.603,0.838 -3.296,1.154 -4.944,0.929c-1.378,-0.194 -2.456,-0.81 -3.116,-1.798c-0.988,-1.499 -1.078,-3.116 -0.255,-4.734c0.601,-1.169 1.499,-2.023 2.099,-2.443c-0.15,-0.389 -0.33,-1.048 -0.42,-1.542c-4.436,3.177 -3.985,7.521 -2.637,9.574c1.004,1.498 3.057,2.456 5.304,2.456c0.599,0 1.229,-0.044 1.843,-0.194c3.896,-0.749 6.847,-3.086 8.54,-6.532l0.014,-0.031zm5.348,-3.746c-2.321,-2.727 -5.738,-4.225 -9.634,-4.225l-0.51,0c-0.253,-0.554 -0.837,-0.899 -1.497,-0.899l-0.045,0c-0.943,0 -1.678,0.81 -1.647,1.753c0.03,0.898 0.794,1.648 1.708,1.648l0.074,0c0.675,-0.03 1.259,-0.45 1.498,-1.049l0.555,0c2.309,0 4.495,0.674 6.488,1.992c1.527,1.004 2.622,2.322 3.236,3.896c0.538,1.288 0.509,2.547 -0.045,3.597c-0.854,1.647 -2.293,2.517 -4.195,2.517c-1.199,0 -2.367,-0.375 -2.967,-0.644c-0.359,0.298 -0.959,0.793 -1.394,1.093c1.318,0.598 2.652,0.943 3.94,0.943c2.922,0 5.093,-1.647 5.918,-3.236c0.898,-1.798 0.824,-4.824 -1.469,-7.416l-0.014,0.03zm-15.491,4.284c0.029,0.899 0.793,1.648 1.708,1.648l0.06,0c0.959,-0.03 1.693,-0.823 1.648,-1.768c0,-0.899 -0.779,-1.647 -1.693,-1.647l-0.061,0c-0.06,0 -0.149,0 -0.225,0.029c-1.243,-2.098 -1.768,-4.346 -1.572,-6.771c0.119,-1.828 0.719,-3.417 1.797,-4.735c0.899,-1.124 2.592,-1.679 3.746,-1.708c3.236,-0.061 4.585,3.971 4.689,5.574l1.498,0.449c-0.345,-4.914 -3.4,-7.492 -6.322,-7.492c-2.742,0 -5.273,1.993 -6.293,4.915c-1.393,3.896 -0.479,7.641 1.229,10.638c-0.149,0.195 -0.239,0.539 -0.209,0.868z"/>
 </g>
</svg>